Coordinates
version=1
nRows=17
nColumns=34
inDegrees=yes

Units are S.I. units (second, meters, Newtons, ...)
Angles are in degrees.

endheader
time	pelvis_tilt	pelvis_list	pelvis_rotation	pelvis_tx	pelvis_ty	pelvis_tz	hip_flexion_r	hip_adduction_r	hip_rotation_r	knee_angle_r	ankle_angle_r	subtalar_angle_r	mtp_angle_r	hip_flexion_l	hip_adduction_l	hip_rotation_l	knee_angle_l	socket_flexion	socket_adduction	socket_rotation	socket_tx	socket_ty	socket_tz	pros_ankle_rx	pros_ankle_ry	pros_ankle_rz	pros_ankle_tx	pros_ankle_ty	pros_ankle_tz	foot_flex	lumbar_extension	lumbar_bending	lumbar_rotation
      0.90416667	     -0.26584100	     -6.59381947	      2.14825013	      0.46238351	      1.04376500	      0.36285790	     11.97875021	     10.01503328	     -7.80879406	    -21.95063634	      9.22719541	     13.94837790	     14.91655401	     16.68923891	    -12.26874384	     -2.02865764	    -66.82380665	     -2.29973631	      0.94550864	     -5.44995384	      0.00000000	     -0.01894952	      0.00000000	      0.00000000	      0.00000000	      0.00000000	      0.00000000	      0.00000000	      0.00000000	     -1.47157527	     -9.26658421	      2.74000563	    -23.51490106
      0.90833333	     -0.24170959	     -6.60292881	      2.12712004	      0.46773526	      1.04503497	      0.36292567	     11.38008910	     10.02330859	     -7.94274862	    -21.45995869	      8.91942084	     14.36408069	     15.14225484	     17.05494884	    -12.23535027	     -1.87360059	    -66.22739543	     -2.23972713	      0.90782915	     -5.11261535	      0.00000000	     -0.01909628	      0.00000000	      0.00000000	      0.00000000	      0.00000000	      0.00000000	      0.00000000	      0.00000000	     -1.46915748	     -9.09879511	      2.74165108	    -23.40171559
      0.91250000	     -0.24967279	     -6.54490041	      1.99598532	      0.47251399	      1.04602207	      0.36320796	     11.01700633	      9.97438243	     -7.92751400	    -21.35165210	      8.95339381	     14.43511672	     15.17699590	     17.57478002	    -12.14497984	     -1.75384393	    -65.89089138	     -2.33792230	      0.94445046	     -4.79493489	      0.00000000	     -0.01863484	      0.00000000	      0.00000000	      0.00000000	      0.00000000	      0.00000000	      0.00000000	      0.00000000	     -1.47150155	     -9.18778629	      2.70865517	    -23.35649980
      0.91666667	     -0.23170100	     -6.53364053	      2.02891426	      0.47782484	      1.04733105	      0.36320601	     10.38314098	      9.98671603	     -7.95546043	    -20.78568097	      8.69925282	     14.82208226	     15.42724995	     17.94215401	    -12.07794498	     -1.61418900	    -65.17362432	     -2.22791642	      0.82651590	     -4.42379772	      0.00000000	     -0.01869617	      0.00000000	      0.00000000	      0.00000000	      0.00000000	      0.00000000	      0.00000000	      0.00000000	     -1.47885451	     -9.00685189	      2.60685557	    -23.18283372
      0.92083333	     -0.25876993	     -6.48905745	      1.94866436	      0.48257842	      1.04834931	      0.36339030	     10.00474466	      9.95387649	     -7.92852895	    -20.58100944	      8.71734321	     14.93598747	     15.50483127	     18.48631612	    -11.98703424	     -1.49770075	    -64.73328775	     -2.27551715	      0.79593205	     -4.10218606	      0.00000000	     -0.01808403	      0.00000000	      0.00000000	      0.00000000	      0.00000000	      0.00000000	      0.00000000	      0.00000000	     -1.49921235	     -9.13181771	      2.53368316	    -23.10598092
      0.92500000	     -0.21655460	     -6.45253135	      1.84360539	      0.48788002	      1.04967106	      0.36356913	      9.38732939	      9.93085420	     -7.93561561	    -20.10668433	      8.38229249	     15.28561767	     15.86525217	     18.67815502	    -11.90466404	     -1.44261440	    -63.83187097	     -2.16464858	      0.77835649	     -3.79699555	      0.00000000	     -0.01848543	      0.00000000	      0.00000000	      0.00000000	      0.00000000	      0.00000000	      0.00000000	      0.00000000	     -1.49158292	     -9.03346822	      2.49395857	    -22.90933248
      0.92916667	     -0.23768250	     -6.41685955	      1.76110878	      0.49255699	      1.05067292	      0.36374156	      9.00370699	      9.90751492	     -7.89724492	    -19.91176764	      8.41665300	     15.38487406	     15.94380898	     19.22083395	    -11.81435437	     -1.31856656	    -63.37152998	     -2.24110244	      0.73712436	     -3.49388602	      0.00000000	     -0.01768273	      0.00000000	      0.00000000	      0.00000000	      0.00000000	      0.00000000	      0.00000000	      0.00000000	     -1.50610236	     -9.14379859	      2.40474143	    -22.82661014
      0.93333333	     -0.27184534	     -6.40259502	      1.70330676	      0.49744628	      1.05170404	      0.36388448	      8.55900622	      9.91512043	     -7.85826091	    -19.57848120	      8.35138093	     15.55760699	     16.03722493	     19.70977473	    -11.74705746	     -1.21162600	    -62.77623837	     -2.29326053	      0.67813798	     -3.18227157	      0.00000000	     -0.01708059	      0.00000000	      0.00000000	      0.00000000	      0.00000000	      0.00000000	      0.00000000	      0.00000000	     -1.51452409	     -9.12258737	      2.33272131	    -22.70092681
      0.93750000	      0.05856818	     -6.15984362	      1.46654587	      0.50281646	      1.05380520	      0.36429309	      7.59279693	      9.68597215	     -7.72437727	    -19.05857349	      7.85576097	     15.86716921	     17.41398628	     19.10771131	    -11.43131752	     -1.30988592	    -60.93342512	     -1.74992759	      0.75084447	     -3.10385942	      0.00000000	     -0.01890742	      0.00000000	      0.00000000	      0.00000000	      0.00000000	      0.00000000	      0.00000000	      0.00000000	     -1.48460490	     -9.41783968	      2.04214101	    -22.32410655
      0.94166667	     -0.00311942	     -6.17430336	      1.39491294	      0.50753972	      1.05466392	      0.36439936	      7.23126345	      9.70780354	     -7.70399759	    -18.81512306	      7.83112235	     16.00679163	     17.46688150	     19.68356506	    -11.39069143	     -1.18728617	    -60.44458532	     -1.89244932	      0.69558337	     -2.81059200	      0.00000000	     -0.01793971	      0.00000000	      0.00000000	      0.00000000	      0.00000000	      0.00000000	      0.00000000	      0.00000000	     -1.50280827	     -9.43879928	      2.00715578	    -22.25153649
      0.94583333	     -0.01050288	     -6.18260612	      1.22582857	      0.51219624	      1.05545129	      0.36456392	      6.90509850	      9.69551464	     -7.70713296	    -18.76370936	      7.81152746	     16.06567950	     17.48219712	     20.16427750	    -11.34557833	     -1.10250209	    -60.01228348	     -2.15296936	      0.71324054	     -2.63176211	      0.00000000	     -0.01697382	      0.00000000	      0.00000000	      0.00000000	      0.00000000	      0.00000000	      0.00000000	      0.00000000	     -1.46919511	     -9.47138662	      2.01597606	    -22.21514203
      0.95000000	     -0.16704186	     -6.23427328	      1.12563119	      0.51759063	      1.05651513	      0.36481969	      6.39853841	      9.79660745	     -7.59226787	    -18.05524304	      7.31629945	     16.47162129	     17.67899813	     20.49730394	    -11.36548347	     -1.07642509	    -58.83364372	     -1.96527810	      0.63781076	     -2.31219845	      0.00000000	     -0.01713842	      0.00000000	      0.00000000	      0.00000000	      0.00000000	      0.00000000	      0.00000000	      0.00000000	     -1.47897133	     -9.10313071	      2.08492352	    -21.92217519
      0.95416667	     -0.15267438	     -6.24202337	      0.97070989	      0.52209177	      1.05725497	      0.36496372	      6.08256739	      9.78459802	     -7.58461832	    -18.06336433	      7.32510118	     16.50261250	     17.69588931	     20.97005268	    -11.31599078	     -0.99639023	    -58.40318598	     -2.24971508	      0.62998076	     -2.18353992	      0.00000000	     -0.01601736	      0.00000000	      0.00000000	      0.00000000	      0.00000000	      0.00000000	      0.00000000	      0.00000000	     -1.44184746	     -9.17347786	      2.06801481	    -21.89048569
      0.95833333	     -0.29155269	     -6.26531661	      0.85938811	      0.52747260	      1.05830772	      0.36520343	      5.54583374	      9.85676950	     -7.41026476	    -17.34919957	      6.98560252	     16.83192022	     17.88794429	     21.22385950	    -11.29091074	     -0.96268934	    -57.11330993	     -2.04001622	      0.59037073	     -1.90884877	      0.00000000	     -0.01625697	      0.00000000	      0.00000000	      0.00000000	      0.00000000	      0.00000000	      0.00000000	      0.00000000	     -1.43239008	     -8.87341046	      2.05916929	    -21.57246953
      0.96250000	     -0.28963316	     -6.18160791	      0.64781269	      0.53247955	      1.05949793	      0.36550777	      5.02216878	      9.78916803	     -7.20148991	    -16.94830510	      6.69159787	     16.97612196	     18.20954010	     21.24736488	    -11.14014285	     -0.97523860	    -55.69780154	     -1.79488464	      0.61025211	     -1.83607375	      0.00000000	     -0.01659122	      0.00000000	      0.00000000	      0.00000000	      0.00000000	      0.00000000	      0.00000000	      0.00000000	     -1.40420131	     -8.83687018	      1.93095140	    -21.27150045
      0.96666667	     -0.34264090	     -6.18120067	      0.52587593	      0.53697171	      1.06020865	      0.36564477	      4.72220297	      9.77668551	     -7.17436130	    -16.82157766	      6.71140168	     17.03740307	     18.25951104	     21.75368413	    -11.07800670	     -0.89080034	    -55.11100297	     -2.01934939	      0.58598373	     -1.65230235	      0.00000000	     -0.01532294	      0.00000000	      0.00000000	      0.00000000	      0.00000000	      0.00000000	      0.00000000	      0.00000000	     -1.41139522	     -9.00061930	      1.89408333	    -21.20892703
      0.97083333	     -0.31792546	     -6.21618855	      0.37553778	      0.54142038	      1.06087435	      0.36570237	      4.41035283	      9.77867084	     -7.16738779	    -16.84896554	      6.70008712	     17.07254434	     18.27267846	     22.19688534	    -11.04418609	     -0.82074700	    -54.63999999	     -2.34866328	      0.54709968	     -1.57845489	      0.00000000	     -0.01394273	      0.00000000	      0.00000000	      0.00000000	      0.00000000	      0.00000000	      0.00000000	      0.00000000	     -1.35713707	     -9.03921641	      1.89373481	    -21.18053315
